<?xml version="1.0" standalone="no"?>
<!DOCTYPE svg PUBLIC "-//W3C//DTD SVG 20010904//EN"
 "http://www.w3.org/TR/2001/REC-SVG-20010904/DTD/svg10.dtd">
<svg version="1.0" xmlns="http://www.w3.org/2000/svg"
 width="262.000000pt" height="262.000000pt" viewBox="0 0 262.000000 262.000000"
 preserveAspectRatio="xMidYMid meet">
<metadata>
Created by potrace 1.11, written by Peter Selinger 2001-2013
</metadata>
<g transform="translate(0.000000,262.000000) scale(0.100000,-0.100000)"
fill="#000000" stroke="none">
<path d="M1326 2028 c-21 -30 -20 -54 4 -78 39 -39 104 -15 102 40 0 16 -7 37
-16 45 -22 23 -72 19 -90 -7z"/>
<path d="M1935 2021 c-45 -12 -117 -49 -145 -74 -14 -12 -45 -46 -69 -75 -66
-80 -96 -90 -200 -66 -195 46 -340 3 -490 -143 -103 -102 -131 -113 -273 -106
-113 6 -175 -6 -267 -50 -77 -36 -173 -128 -213 -203 -101 -187 -66 -420 84
-572 166 -169 426 -194 625 -60 133 90 207 86 343 -16 100 -76 185 -100 327
-94 88 3 106 8 176 41 133 65 235 189 267 326 7 30 13 106 14 170 1 105 3 120
26 156 29 47 31 50 90 94 110 84 161 173 166 293 6 156 -71 285 -214 355 -40
20 -71 26 -135 29 -45 2 -95 0 -112 -5z"/>
<path d="M734 1785 c-80 -63 -26 -190 76 -179 49 5 90 52 90 102 -1 87 -97
132 -166 77z"/>
<path d="M2287 1217 c-58 -47 -50 -129 14 -159 66 -31 139 10 139 77 0 47 -14
71 -50 90 -40 21 -70 19 -103 -8z"/>
</g>
</svg>
